<svg width="64" height="64" viewBox="0 0 64 64" xmlns="http://www.w3.org/2000/svg">
  <!-- NEXUS - Tech Specialist Robot -->
  <defs>
    <linearGradient id="nexusGradient" x1="0%" y1="0%" x2="100%" y2="100%">
      <stop offset="0%" style="stop-color:#10b981;stop-opacity:1" />
      <stop offset="100%" style="stop-color:#047857;stop-opacity:1" />
    </linearGradient>
    <filter id="greenGlow">
      <feGaussianBlur stdDeviation="2" result="coloredBlur"/>
      <feMerge> 
        <feMergeNode in="coloredBlur"/>
        <feMergeNode in="SourceGraphic"/>
      </feMerge>
    </filter>
  </defs>
  
  <!-- Angular Tech Body -->
  <polygon points="20,24 44,24 46,52 18,52" fill="url(#nexusGradient)"/>
  
  <!-- Tech Panels -->
  <rect x="22" y="26" width="20" height="24" rx="2" fill="#059669"/>
  <rect x="24" y="28" width="16" height="20" rx="1" fill="#065f46"/>
  
  <!-- Quantum Core -->
  <rect x="26" y="30" width="12" height="16" rx="3" fill="#064e3b"/>
  <rect x="28" y="32" width="8" height="12" rx="2" fill="#fbbf24"/>
  <rect x="30" y="34" width="4" height="8" rx="1" fill="#fde047" filter="url(#greenGlow)"/>
  
  <!-- Holographic Displays -->
  <rect x="25" y="29" width="3" height="6" rx="1" fill="#34d399" opacity="0.7"/>
  <rect x="36" y="29" width="3" height="6" rx="1" fill="#34d399" opacity="0.7"/>
  <rect x="25" y="41" width="3" height="6" rx="1" fill="#34d399" opacity="0.7"/>
  <rect x="36" y="41" width="3" height="6" rx="1" fill="#34d399" opacity="0.7"/>
  
  <!-- Angular Head -->
  <polygon points="22,8 42,8 44,26 20,26" fill="#6b7280"/>
  
  <!-- Tech Visor -->
  <polygon points="24,12 40,12 41,22 23,22" fill="#064e3b"/>
  <polygon points="25,13 39,13 40,21 24,21" fill="#fbbf24" opacity="0.6"/>
  
  <!-- Scanner Eyes -->
  <circle cx="28" cy="17" r="2" fill="#fde047" filter="url(#greenGlow)"/>
  <circle cx="36" cy="17" r="2" fill="#fde047" filter="url(#greenGlow)"/>
  
  <!-- Tech Arms -->
  <polygon points="12,22 20,24 18,38 10,36" fill="url(#nexusGradient)"/>
  <polygon points="44,24 52,22 54,36 46,38" fill="url(#nexusGradient)"/>
  
  <!-- Arm Tech Modules -->
  <rect x="13" y="26" width="5" height="8" rx="2" fill="#059669"/>
  <rect x="46" y="26" width="5" height="8" rx="2" fill="#059669"/>
  
  <!-- Tech Cores -->
  <circle cx="15" cy="28" r="2" fill="#fbbf24" filter="url(#greenGlow)"/>
  <circle cx="49" cy="28" r="2" fill="#fbbf24" filter="url(#greenGlow)"/>
  
  <!-- Angular Legs -->
  <polygon points="22,50 30,52 28,62 20,60" fill="url(#nexusGradient)"/>
  <polygon points="34,52 42,50 44,60 36,62" fill="url(#nexusGradient)"/>
  
  <!-- Leg Tech Panels -->
  <rect x="23" y="54" width="4" height="6" rx="1" fill="#059669"/>
  <rect x="37" y="54" width="4" height="6" rx="1" fill="#059669"/>
  
  <!-- Data Streams -->
  <line x1="30" y1="35" x2="34" y2="35" stroke="#34d399" stroke-width="1" opacity="0.8"/>
  <line x1="30" y1="38" x2="34" y2="38" stroke="#34d399" stroke-width="1" opacity="0.8"/>
  <line x1="30" y1="41" x2="34" y2="41" stroke="#34d399" stroke-width="1" opacity="0.8"/>
</svg> 